# xmcd CD database file
#
# Track frame offsets:
#	150
#	68657
#	125473
#	158877
#	197463
#
# Disc length: 2834 seconds
#
# Revision: 0
# Processed by: cddbd v1.5.2PL0 Copyright (c) Steve Scherf et al.
# Submitted via: CDex 1.70beta2
#
DISCID=3a0b1005
DTITLE=Peter Brotzmann - Lost and Found
DYEAR=2006
DGENRE=Jazz
TTITLE0=Internal Rotation
TTITLE1=Lost and Found
TTITLE2=Universal Madness
TTITLE3=Got a Hole in it
TTITLE4=Turmoil
EXTD=YEAR: 2006
EXTT0=
EXTT1=
EXTT2=
EXTT3=
EXTT4=
PLAYORDER=
